{"title":"The Book Of ELi 2010 TS XVID V2.Fixed.eng.subs.Unrar","uid":5368490,"size":1872242921,"categoryP":"video","categoryS":"movies","magnet":"?xt=urn:btih:8b6098f172364e736c2a76a47ae7c7b051df79cc&amp;dn=The+Book+Of+ELi+2010+TS+XVID+V2.Fixed.eng.subs.Unrar&amp;tr=udp%3A%2F%2Ftracker.openbittorrent.com%3A80&amp;tr=udp%3A%2F%2Fopen.demonii.com%3A1337&amp;tr=udp%3A%2F%2Ftracker.coppersurfer.tk%3A6969&amp;tr=udp%3A%2F%2Fexodus.desync.com%3A6969","seeders":0,"leechers":1,"uploader":"simon200","files":-1,"time":1266347052,"description":" &lt;a href=&quot;http://www.imdb.com/title/tt1037705/&quot; rel=&quot;nofollow&quot; target=&quot;_NEW&quot;&gt;http://www.imdb.com/title/tt1037705/&lt;/a&gt;\n\nDETAILS:\n\nVideo\nID                               : 0\nFormat                           : AVI\nFormat profile                   : Advanced Simple@L5\nFormat settings, BVOP            : Yes\nFormat settings, QPel            : No\nFormat settings, GMC             : No warppoints\nFormat settings, Matrix          : Default (H.263)\nMuxing mode                      : Packed bitstream\nCodec ID                         : XVID\nCodec ID/Hint                    : XviD\nDuration                         : 1h 48mn\nBit rate                         : 773 Kbps\nWidth                            : 608 pixels\nHeight                           : 256 pixels\nDisplay aspect ratio             : 2.35\nFrame rate                       : 23.976 fps\nResolution                       : 24 bits\nColorimetry                      : 4:2:0\nScan type                        : Progressive\nBits/(Pixel*Frame)               : 0.207\nStream size                      : 599 MiB (85%)\nWriting library                  : XviD 1.2.1 (UTC 2008-12-04)\n\nAudio\nID                               : 1\nFormat                           : MPEG Audio\nFormat version                   : Version 1\nFormat profile                   : Layer 3\nCodec ID                         : 55\nCodec ID/Hint                    : MP3\nDuration                         : 1h 48mn\nBit rate mode                    : Constant\nBit rate                         : 128 Kbps\nChannel(s)                       : 2 channels\nSampling rate                    : 44.1 KHz\nResolution                       : 16 bits\nVideo delay                      : 25ms\nStream size                      : 99.1 MiB (14%)\nAlignment                        : Split accross interleaves\nInterleave, duration             : 42 ms (1.00 video frame)\nInterleave, preload duration     : 500 ms\n\n","torrent":{"xt":"urn:btih:8b6098f172364e736c2a76a47ae7c7b051df79cc","amp;dn":"The+Book+Of+ELi+2010+TS+XVID+V2.Fixed.eng.subs.Unrar","amp;tr":["udp%3A%2F%2Ftracker.openbittorrent.com%3A80","udp%3A%2F%2Fopen.demonii.com%3A1337","udp%3A%2F%2Ftracker.coppersurfer.tk%3A6969","udp%3A%2F%2Fexodus.desync.com%3A6969"],"infoHash":"8b6098f172364e736c2a76a47ae7c7b051df79cc","infoHashBuffer":{"type":"Buffer","data":[139,96,152,241,114,54,78,115,108,42,118,164,122,231,199,176,81,223,121,204]},"announce":[],"urlList":[]}}